# xmcd
#
# Track frame offsets: 
#        150
#        10135
#        20932
#        31898
#        40486
#        50212
#        59129
#        67474
#        76883
#        88848
#        98566
#        108461
#        117478
#        126174
#        135450
#        145113
#
# Disc length: 2096 seconds
#
# Revision: 0
# Processed by: cddbd v1.4PL0 Copyright (c) Steve Scherf et al.
# Submitted via: ExactAudioCopy v0.95a2
#
DISCID=f0082e10
DTITLE=Narvel Felts - Through The Years Vol. 1
DYEAR=1997
DGENRE=Rock and Roll
TTITLE0=Maybelline
TTITLE1=Woman Love
TTITLE2=Did You Tell Me
TTITLE3=My Babe
TTITLE4=A Teen's Way
TTITLE5=Kiss-a-Me Baby
TTITLE6=Foolish Thoughts
TTITLE7=Cry Baby Cry
TTITLE8=Your Touch
TTITLE9=Vada Lou
TTITLE10=Little Girl Step This Way
TTITLE11=Three Thousand Miles
TTITLE12=Cutie Baby
TTITLE13=Darling Sue
TTITLE14=Honey Love
TTITLE15=Genavee
EXTD=
EXTT0=
EXTT1=
EXTT2=
EXTT3=
EXTT4=
EXTT5=
EXTT6=
EXTT7=
EXTT8=
EXTT9=
EXTT10=
EXTT11=
EXTT12=
EXTT13=
EXTT14=
EXTT15=
PLAYORDER=
